<svg xmlns="http://www.w3.org/2000/svg" viewBox="0 0 132.86 159.25">
  <defs/>
  <path fill="#fff" d="M65.43 76.71a37.12 37.12 0 0027.12-11.24 37.12 37.12 0 0011.23-27.12 37.12 37.12 0 00-11.24-27.12A37.12 37.12 0 0065.43 0a37.09 37.09 0 00-27.12 11.24 37.09 37.09 0 00-11.24 27.11 37.09 37.09 0 0011.24 27.12 37.11 37.11 0 0027.12 11.24zM46.1 19a26.1 26.1 0 0119.33-8 26.1 26.1 0 0119.32 8 26.11 26.11 0 018 19.32 26.11 26.11 0 01-8 19.33 26.1 26.1 0 01-19.32 8 26.14 26.14 0 01-19.33-8 26.14 26.14 0 01-8-19.33 26.13 26.13 0 018-19.32zm86.44 103.42a96.36 96.36 0 00-1.29-10.06 79.7 79.7 0 00-2.48-10.12 50.07 50.07 0 00-4.16-9.43 35.24 35.24 0 00-6.27-8.17 27.36 27.36 0 00-9-5.66 31 31 0 00-11.5-2.09c-1.62 0-3.19.67-6.23 2.65-1.87 1.22-4 2.63-6.49 4.18a37.43 37.43 0 01-8.41 3.71 32.63 32.63 0 01-20.55 0 37.6 37.6 0 01-8.4-3.7l-6.5-4.19c-3-2-4.6-2.65-6.23-2.65A31 31 0 0023.52 79a27.57 27.57 0 00-9 5.66 35.24 35.24 0 00-6.27 8.17 49.87 49.87 0 00-4.16 9.44 79.15 79.15 0 00-2.47 10.11 93.28 93.28 0 00-1.3 10.08c-.21 3-.32 6.2-.32 9.4 0 8.31 2.64 15 7.85 20s12 7.38 20.24 7.38h76.68c8.28 0 15.09-2.49 20.24-7.38s7.85-11.7 7.85-20c0-3.21-.11-6.37-.32-9.41zM117 144.27c-3.29 3.13-7.67 4.66-13.37 4.66H29.28c-5.7 0-10.08-1.53-13.37-4.66S11.1 137 11.1 131.43c0-2.89.1-5.74.29-8.48a84 84 0 011.13-8.78 69.35 69.35 0 012.11-8.65 39.59 39.59 0 013.28-7.43 25.33 25.33 0 014.46-5.85 17.7 17.7 0 015.81-3.61 20.64 20.64 0 017.12-1.38c.32.17.88.49 1.8 1.09 1.86 1.21 4 2.59 6.37 4.1A44.6 44.6 0 0053.69 97a40.61 40.61 0 0025.48 0 44.6 44.6 0 0010.22-4.57c2.43-1.55 4.51-2.89 6.37-4.1.91-.6 1.47-.92 1.79-1.09a20.64 20.64 0 017.12 1.38 17.59 17.59 0 015.81 3.61 25.36 25.36 0 014.52 5.86 40.25 40.25 0 013.28 7.43 69.62 69.62 0 012.11 8.64 84.81 84.81 0 011.13 8.79c.19 2.73.28 5.58.29 8.48-.06 5.57-1.63 9.76-4.81 12.84z" data-name="User (icon)" opacity=".3"/>
</svg>
